<?xml version="1.0" encoding="UTF-8"?>
<svg version="1.1" xmlns="http://www.w3.org/2000/svg" width="376" height="456">
<path d="M0 0 C124.08 0 248.16 0 376 0 C376 150.48 376 300.96 376 456 C251.92 456 127.84 456 0 456 C0 305.52 0 155.04 0 0 Z " fill="#F4F4F4" transform="translate(0,0)"/>
<path d="M0 0 C2.76510178 0.02245818 5.53021497 0.03443465 8.29537773 0.04671192 C15.50141211 0.07922829 22.70706265 0.13521602 29.91282463 0.20510578 C34.90052307 0.25343243 39.88822864 0.29348613 44.87602997 0.32949448 C51.64571362 0.37946594 58.41496846 0.44929564 65.18431854 0.53298569 C67.70905509 0.56318081 70.23384029 0.58959436 72.75865936 0.61184311 C109.90361496 0.96557483 142.38814189 6.34725985 170.15727997 32.5790062 C182.1295562 45.09846142 190.92174479 61.5755937 195.40727997 78.2665062 C195.74372528 79.49433823 195.74372528 79.49433823 196.08696747 80.74697495 C201.17635222 103.23090072 195.52682044 126.08995093 185.40727997 146.2665062 C185.04505341 147.00046616 184.68282684 147.73442612 184.30962372 148.49062729 C178.53927781 160.10222591 171.92367246 171.03899905 164.90532684 181.93008041 C158.68957725 191.6244617 152.7101818 201.45419163 147.21977997 211.5790062 C146.83281952 212.27848373 146.44585907 212.97796127 146.04717255 213.6986351 C144.06326592 217.43751845 142.99074025 220.05044877 143.40727997 224.2665062 C144.39206459 226.56759833 144.39206459 226.56759833 145.87212372 228.80166245 C146.41643036 229.67951401 146.960737 230.55736557 147.52153778 231.4618187 C148.1232077 232.40799057 148.72487762 233.35416245 149.34477997 234.3290062 C150.63069184 236.39233755 151.91581228 238.4561623 153.20024872 240.52041245 C153.88393524 241.61240952 154.56762177 242.70440659 155.27202606 243.82949448 C157.47333366 247.35910533 159.62616984 250.91695004 161.77056122 254.48134995 C162.13286331 255.08307022 162.49516541 255.6847905 162.86844635 256.30474472 C163.59961046 257.51911321 164.33074556 258.73349917 165.0618515 259.94790268 C169.83258426 267.86815638 174.62237839 275.73740551 179.90727997 283.3290062 C196.85683113 308.0278381 200.58550928 334.0280162 195.40727997 363.2665062 C131.55938828 363.46078698 131.55938828 363.46078698 100.69954681 363.00304794 C98.46561832 362.97098847 96.23162271 362.94323928 93.99758148 362.92034531 C47.08261216 362.41427343 5.72685942 352.63408622 -28.59272003 319.2665062 C-29.15249542 318.72936996 -29.71227081 318.19223373 -30.28900909 317.63882065 C-60.39899123 288.28282411 -72.53007462 245.79612362 -73.69126892 204.78603935 C-73.73541223 201.04171004 -73.75063935 197.29844766 -73.75385284 193.55385971 C-73.75849628 192.12952679 -73.76352291 190.70519507 -73.76889801 189.28086472 C-73.78187919 185.44970144 -73.7884389 181.61855556 -73.79290867 177.78737378 C-73.79586332 175.38051775 -73.79997234 172.97366623 -73.80441284 170.56681252 C-73.81805152 162.99773547 -73.82773527 155.42866904 -73.83161473 147.85958058 C-73.83608366 139.19405455 -73.85359261 130.52868717 -73.88261533 121.86320931 C-73.90440654 115.11700846 -73.91432824 108.37085167 -73.91565585 101.62461609 C-73.91669171 97.61775339 -73.92233315 93.61104049 -73.94047546 89.60421562 C-74.03495134 67.47242229 -73.55328995 45.61938828 -67.17279816 24.22695541 C-66.76564298 22.85092172 -66.37797087 21.4690448 -66.00482941 20.08340073 C-62.65564391 7.83229282 -62.65564391 7.83229282 -58.53412628 4.7040062 C-56.09272003 3.9540062 -56.09272003 3.9540062 -53.28730011 3.65884018 C-50.55067619 3.36823325 -47.89617842 3.00495415 -45.18695831 2.55190659 C-30.09236968 0.11374011 -15.26562273 -0.13522532 0 0 Z " fill="#6111DA" transform="translate(138.59272003173828,56.73349380493164)"/>
<path d="M0 0 C1.11634323 -0.0065712 2.23268646 -0.0131424 3.38285828 -0.01991272 C7.07180863 -0.03959581 10.76071827 -0.05130008 14.44970703 -0.0612793 C15.71504398 -0.06535482 16.98038094 -0.06943035 18.28406143 -0.07362938 C24.29726191 -0.09232744 30.31043801 -0.10689413 36.32365978 -0.11524135 C43.22238713 -0.12498013 50.12079076 -0.15121779 57.01940429 -0.19174224 C63.02722641 -0.22579899 69.03489421 -0.23740755 75.04281998 -0.24144554 C77.58067131 -0.24628688 80.11851982 -0.25782989 82.65630722 -0.27648354 C96.30747801 -0.37055188 108.80057308 -0.20556347 121.83251953 4.17700195 C122.81888397 4.49831589 123.80524841 4.81962982 124.82150269 5.15068054 C135.67692604 8.8695692 144.98337014 17.3748466 150.59423828 27.2902832 C159.10306776 44.82300447 158.81553897 63.56945898 152.57861328 81.8527832 C145.96481071 99.67846739 135.82990253 115.49449038 123.83251953 130.17700195 C120.20554729 128.96801121 119.97422335 128.19312402 118.14501953 124.9543457 C117.35840942 123.58137329 117.35840942 123.58137329 116.5559082 122.18066406 C115.70283081 120.66291382 115.70283081 120.66291382 114.83251953 119.11450195 C113.58009404 116.92615383 112.32610207 114.73870171 111.07080078 112.55200195 C110.73728104 111.96881699 110.40376129 111.38563202 110.06013489 110.78477478 C106.19721312 104.03970061 102.22515599 97.35989141 98.24975586 90.68069458 C97.05553634 88.67417699 95.86278568 86.6667935 94.67041016 84.65917969 C91.58786698 79.47177459 88.50241353 74.28628894 85.39086914 69.11621094 C84.9897139 68.44940811 84.58855865 67.78260529 84.17524719 67.09559631 C83.41784729 65.83762317 82.65953169 64.58020066 81.90007019 63.32347107 C78.95677045 58.43614451 76.17397204 53.47580765 73.43798828 48.4699707 C71.6533823 45.92115388 70.68281895 45.29904959 67.83251953 44.17700195 C65.53042407 43.92710258 65.53042407 43.92710258 63.06396484 44.04174805 C62.12329163 44.06191986 61.18261841 44.08209167 60.21343994 44.10287476 C59.20601746 44.13507111 58.19859497 44.16726746 57.16064453 44.20043945 C56.12309021 44.22546539 55.08553589 44.25049133 54.01654053 44.27627563 C50.70486427 44.35840211 47.39379085 44.45502112 44.08251953 44.55200195 C41.83645035 44.61024896 39.59035648 44.66755208 37.34423828 44.72387695 C31.83999871 44.86396997 26.3361839 45.01596152 20.83251953 45.17700195 C29.95658508 60.79131512 39.10254161 76.38904706 48.44384766 91.87475586 C56.99078741 106.04452412 65.45739169 120.26143958 73.89526367 134.49633789 C79.88835886 144.60417031 85.92490094 154.68529485 91.98486328 164.75317383 C97.26508299 173.52654502 102.48470471 182.33539035 107.70022583 191.14733887 C112.055127 198.50418419 116.42560027 205.85115481 120.83251953 213.17700195 C149.49958354 260.89762882 149.49958354 260.89762882 152.83251953 271.17700195 C145.5198601 271.22404963 138.20723506 271.2592286 130.89445305 271.2806263 C127.49614871 271.29091366 124.09795037 271.30478408 120.69970703 271.32788086 C79.20660305 271.58874727 35.79116248 268.74949507 4.02001953 238.73950195 C-11.000099 222.77609095 -19.01233634 200.80877351 -21.86532593 179.43359375 C-22.12992877 177.45745066 -22.41248533 175.48372856 -22.69799805 173.51049805 C-23.52830836 165.88290246 -23.28966813 158.17906934 -23.25732422 150.5168457 C-23.25327516 148.74910022 -23.24945055 146.98135421 -23.24583435 145.21360779 C-23.19569241 126.02210599 -23.01083958 106.83136704 -22.79516602 87.64111328 C-22.73935716 82.6622399 -22.68939974 77.68332511 -22.64076328 72.70437717 C-22.60153485 68.77913691 -22.55854702 64.85394413 -22.51453972 60.92875481 C-22.49450946 59.09232895 -22.47574391 57.25588875 -22.45840645 55.4194355 C-22.16122314 24.47162264 -22.16122314 24.47162264 -19.66748047 12.36450195 C-19.40966797 11.07930664 -19.15185547 9.79411133 -18.88623047 8.4699707 C-18.35258889 6.02508023 -17.80150174 3.59725621 -17.16748047 1.17700195 C-11.44724493 -0.03794049 -5.81850511 0.0149384 0 0 Z " fill="#F4F3F4" transform="translate(131.16748046875,102.822998046875)"/>
<path d="M0 0 C2.76510178 0.02245818 5.53021497 0.03443465 8.29537773 0.04671192 C15.50141211 0.07922829 22.70706265 0.13521602 29.91282463 0.20510578 C34.90052307 0.25343243 39.88822864 0.29348613 44.87602997 0.32949448 C51.64571362 0.37946594 58.41496846 0.44929564 65.18431854 0.53298569 C67.70905509 0.56318081 70.23384029 0.58959436 72.75865936 0.61184311 C91.64649046 0.79171208 110.31790314 1.37985632 128.40727997 7.2665062 C128.40727997 7.5965062 128.40727997 7.9265062 128.40727997 8.2665062 C119.57272499 9.61415017 119.57272499 9.61415017 115.40727997 8.2665062 C114.41727997 7.2765062 114.41727997 7.2765062 113.40727997 6.2665062 C109.82139672 6.65416925 106.70740076 7.85216871 103.40727997 9.2665062 C102.80915497 8.6065062 102.21102997 7.9465062 101.59477997 7.2665062 C99.53226163 4.9291216 99.53226163 4.9291216 96.40727997 5.2665062 C96.40727997 4.6065062 96.40727997 3.9465062 96.40727997 3.2665062 C79.62231994 3.21983186 62.8373801 3.18453981 46.05237007 3.16288185 C38.259193 3.15255941 30.4660562 3.13848065 22.67290497 3.11562729 C15.88217244 3.09572297 9.09146906 3.08279681 2.30070817 3.07832921 C-1.29655988 3.07571679 -4.8937445 3.06955654 -8.49098587 3.05504608 C-12.50198605 3.03899713 -16.51284022 3.0385246 -20.52387238 3.03945541 C-21.72292709 3.03226486 -22.92198181 3.02507431 -24.15737152 3.01766586 C-25.24554672 3.02041519 -26.33372192 3.02316452 -27.45487213 3.02599716 C-28.4043189 3.02415358 -29.35376568 3.02230999 -30.33198357 3.02041054 C-32.79335187 3.04951598 -32.79335187 3.04951598 -34.59272003 5.2665062 C-34.92272003 5.9265062 -35.25272003 6.5865062 -35.59272003 7.2665062 C-36.58272003 7.2665062 -37.57272003 7.2665062 -38.59272003 7.2665062 C-38.59272003 6.6065062 -38.59272003 5.9465062 -38.59272003 5.2665062 C-39.25272003 5.2665062 -39.91272003 5.2665062 -40.59272003 5.2665062 C-41.25272003 6.5865062 -41.91272003 7.9065062 -42.59272003 9.2665062 C-45.89272003 9.2665062 -49.19272003 9.2665062 -52.59272003 9.2665062 C-52.92272003 9.9265062 -53.25272003 10.5865062 -53.59272003 11.2665062 C-54.25272003 11.2665062 -54.91272003 11.2665062 -55.59272003 11.2665062 C-55.92272003 12.2565062 -56.25272003 13.2465062 -56.59272003 14.2665062 C-57.58272003 14.7615062 -57.58272003 14.7615062 -58.59272003 15.2665062 C-61.93015838 20.62663446 -63.96393839 24.04905344 -63.03022003 30.3915062 C-62.88584503 31.6702562 -62.74147003 32.9490062 -62.59272003 34.2665062 C-63.25272003 34.9265062 -63.91272003 35.5865062 -64.59272003 36.2665062 C-65.58272003 36.2665062 -66.57272003 36.2665062 -67.59272003 36.2665062 C-67.73709503 37.5452562 -67.88147003 38.8240062 -68.03022003 40.1415062 C-68.29914749 42.52343514 -68.51498349 44.11103311 -69.59272003 46.2665062 C-69.95942983 50.12895014 -70.02429282 54.01477022 -70.15522003 57.8915062 C-70.19767853 59.09452377 -70.24013702 60.29754135 -70.28388214 61.53701401 C-70.82924538 79.10714721 -70.67913859 96.69030175 -70.59272003 114.2665062 C-70.92272003 114.2665062 -71.25272003 114.2665062 -71.59272003 114.2665062 C-71.92272003 145.2865062 -72.25272003 176.3065062 -72.59272003 208.2665062 C-72.92272003 208.2665062 -73.25272003 208.2665062 -73.59272003 208.2665062 C-73.66317672 189.34968416 -73.71588609 170.43288919 -73.74815655 151.5159626 C-73.76354655 142.7301288 -73.78448316 133.9443771 -73.81903839 125.15859604 C-73.84918427 117.49017354 -73.86835198 109.82181057 -73.87498552 102.15333045 C-73.8788557 98.10266654 -73.88778117 94.05217274 -73.9099102 90.00156403 C-74.02676233 67.73035938 -73.59434145 45.75702522 -67.17279816 24.22695541 C-66.76564298 22.85092172 -66.37797087 21.4690448 -66.00482941 20.08340073 C-62.65564391 7.83229282 -62.65564391 7.83229282 -58.53412628 4.7040062 C-56.09272003 3.9540062 -56.09272003 3.9540062 -53.28730011 3.65884018 C-50.55067619 3.36823325 -47.89617842 3.00495415 -45.18695831 2.55190659 C-30.09236968 0.11374011 -15.26562273 -0.13522532 0 0 Z " fill="#8539C6" transform="translate(138.59272003173828,56.73349380493164)"/>
<path d="M0 0 C5.20689565 0.56596692 9.1605979 2.26663348 13.75 4.625 C14.80888428 5.16459351 14.80888428 5.16459351 15.88916016 5.71508789 C39.33371082 17.89863784 56.36906854 38.10409132 65 63 C72.78378013 87.93791932 69.38222961 112.72705629 58 136 C57.67 136 57.34 136 57 136 C57 134.35 57 132.7 57 131 C57.66 131 58.32 131 59 131 C59.66 127.37 60.32 123.74 61 120 C61.66 120 62.32 120 63 120 C63 117.69 63 115.38 63 113 C63.33 113 63.66 113 64 113 C64 110.69 64 108.38 64 106 C64.66 105.67 65.32 105.34 66 105 C66.31546312 84.91176218 66.31546312 84.91176218 64 65 C62.35 64.67 60.7 64.34 59 64 C58.93941406 63.26394531 58.87882812 62.52789062 58.81640625 61.76953125 C58.73261719 60.79371094 58.64882813 59.81789062 58.5625 58.8125 C58.48128906 57.84957031 58.40007812 56.88664062 58.31640625 55.89453125 C58.02333849 53.21350398 57.57296246 50.6337014 57 48 C54.525 48.495 54.525 48.495 52 49 C49.70986347 45.5647952 49.82157027 44.014669 50 40 C49.01 40.495 49.01 40.495 48 41 C47.67 40.34 47.34 39.68 47 39 C46.525625 38.38125 46.05125 37.7625 45.5625 37.125 C42.89305205 33.49455079 41.82797695 30.4086141 41 26 C40.24074219 25.86722656 39.48148437 25.73445313 38.69921875 25.59765625 C37.70535156 25.42105469 36.71148437 25.24445313 35.6875 25.0625 C34.20830078 24.80146484 34.20830078 24.80146484 32.69921875 24.53515625 C30 24 30 24 27 23 C27.66 23 28.32 23 29 23 C29 22.34 29 21.68 29 21 C28.34 20.67 27.68 20.34 27 20 C27.66 19.01 28.32 18.02 29 17 C26.69 16.34 24.38 15.68 22 15 C22 15.66 22 16.32 22 17 C20.68 16.67 19.36 16.34 18 16 C18 13.69 18 11.38 18 9 C16.2365625 9.061875 16.2365625 9.061875 14.4375 9.125 C10.27590326 9.13983635 6.93512333 8.31170778 3 7 C3 6.01 3 5.02 3 4 C2.01 3.67 1.02 3.34 0 3 C0 2.01 0 1.02 0 0 Z " fill="#8539C9" transform="translate(267,65)"/>
<path d="M0 0 C3 2 3 2 3.66015625 3.84765625 C3.79292969 4.57855469 3.92570312 5.30945313 4.0625 6.0625 C4.22234375 6.86945313 4.3821875 7.67640625 4.546875 8.5078125 C4.83362674 10.08494709 5.11550223 11.66298278 5.390625 13.2421875 C6.78366293 20.49114415 9.40437974 27.94273387 15 33 C14.34 33 13.68 33 13 33 C13 33.66 13 34.32 13 35 C13.66 35 14.32 35 15 35 C15.66 37.31 16.32 39.62 17 42 C17.99 41.505 17.99 41.505 19 41 C19 41.99 19 42.98 19 44 C19.66 44 20.32 44 21 44 C21.226875 45.03125 21.45375 46.0625 21.6875 47.125 C22.89904462 51.38271396 24.91909159 53.84394749 28 57 C29.485 57.495 29.485 57.495 31 58 C30.67 59.32 30.34 60.64 30 62 C33.86763446 63.87543354 33.86763446 63.87543354 38 63 C38.020625 64.0725 38.04125 65.145 38.0625 66.25 C38.5816215 69.92554892 38.5816215 69.92554892 40.58984375 71.28515625 C42.3668404 72.24088246 44.18251537 73.12371277 46 74 C47 76 47 76 47 79 C49.91765 80.9451 51.62537285 81.45276317 55 82 C55 83.65 55 85.3 55 87 C57.31 87.33 59.62 87.66 62 88 C62.33 89.98 62.66 91.96 63 94 C65.38980618 94.64340935 67.58755718 95.05995481 70.0625 95.3125 C73 96 73 96 74.875 97.9375 C76 100 76 100 76 102 C76.99 102 77.98 102 79 102 C79 102.66 79 103.32 79 104 C73.93459163 102.55162203 69.85282947 100.34793415 65.4375 97.5625 C64.38912964 96.90205688 64.38912964 96.90205688 63.31958008 96.22827148 C56.34461497 91.73184917 50.09565859 86.61505476 44 81 C43.06671875 80.14921875 42.1334375 79.2984375 41.171875 78.421875 C22.40842909 60.51618661 0.78086827 29.01169915 -0.09375 2.1171875 C-0.0628125 1.41851562 -0.031875 0.71984375 0 0 Z " fill="#420CCB" transform="translate(70,299)"/>
<path d="M0 0 C-0.66 2.31 -1.32 4.62 -2 7 C-2.66 7 -3.32 7 -4 7 C-4 7.99 -4 8.98 -4 10 C-4.66 10 -5.32 10 -6 10 C-5.979375 11.0725 -5.95875 12.145 -5.9375 13.25 C-6 17 -6 17 -6.5625 18.9375 C-7.05120512 21.24139557 -6.79538703 22.80705723 -6.4375 25.125 C-6.293125 26.40375 -6.14875 27.6825 -6 29 C-6.66 29.66 -7.32 30.32 -8 31 C-8.99 31 -9.98 31 -11 31 C-11.144375 32.27875 -11.28875 33.5575 -11.4375 34.875 C-11.70642746 37.25692894 -11.92226346 38.84452691 -13 41 C-13.36670979 44.86244395 -13.43157279 48.74826402 -13.5625 52.625 C-13.6049585 53.82801758 -13.64741699 55.03103516 -13.69116211 56.27050781 C-14.23652535 73.84064102 -14.08641855 91.42379556 -14 109 C-14.33 109 -14.66 109 -15 109 C-15.33 140.02 -15.66 171.04 -16 203 C-16.33 203 -16.66 203 -17 203 C-17.07045668 184.08317796 -17.12316606 165.16638299 -17.15543652 146.24945641 C-17.17082652 137.46362261 -17.19176312 128.6778709 -17.22631836 119.89208984 C-17.25646424 112.22366735 -17.27563195 104.55530437 -17.28226548 96.88682425 C-17.28613567 92.83616035 -17.29506114 88.78566654 -17.31719017 84.73505783 C-17.45582704 58.31183304 -16.06052842 33.11089075 -6.875 8.0625 C-6.62129639 7.36914551 -6.36759277 6.67579102 -6.10620117 5.96142578 C-3.81909904 0 -3.81909904 0 0 0 Z " fill="#9650D9" transform="translate(82,62)"/>
<path d="M0 0 C1.05123047 -0.02707031 2.10246094 -0.05414063 3.18554688 -0.08203125 C4.07209961 -0.11232422 4.95865234 -0.14261719 5.87207031 -0.17382812 C9.04883762 0.22816631 10.77566908 1.20867254 13.32617188 3.13671875 C15.03613281 5.44238281 15.03613281 5.44238281 16.56054688 8.15234375 C17.13087646 9.14991699 17.70120605 10.14749023 18.28881836 11.17529297 C19.17355835 12.76494873 19.17355835 12.76494873 20.07617188 14.38671875 C21.31084767 16.56176661 22.54652524 18.73624611 23.78320312 20.91015625 C24.38342285 21.97202148 24.98364258 23.03388672 25.60205078 24.12792969 C28.26193756 28.7697372 31.06203107 33.32544475 33.92480469 37.84472656 C34.78486413 39.24037221 35.56557394 40.68447228 36.32617188 42.13671875 C35.83117187 43.12671875 35.83117187 43.12671875 35.32617188 44.13671875 C31.40951468 40.87283775 30.68680557 37.94429115 29.32617188 33.13671875 C27.84117187 32.64171875 27.84117187 32.64171875 26.32617188 32.13671875 C26.82117188 30.65171875 26.82117188 30.65171875 27.32617188 29.13671875 C25.67617187 28.80671875 24.02617187 28.47671875 22.32617188 28.13671875 C22.17148438 27.20859375 22.17148438 27.20859375 22.01367188 26.26171875 C21.45091814 23.77145391 21.45091814 23.77145391 18.32617188 22.13671875 C17.33617187 22.63171875 17.33617187 22.63171875 16.32617188 23.13671875 C16.09830729 21.15104167 15.87044271 19.16536458 15.64257812 17.1796875 C15.35446452 14.94275482 15.35446452 14.94275482 14.32617188 12.13671875 C14.32617188 10.81671875 14.32617188 9.49671875 14.32617188 8.13671875 C13.37742188 8.15734375 12.42867187 8.17796875 11.45117188 8.19921875 C8.32617188 8.13671875 8.32617188 8.13671875 6.32617188 7.13671875 C6.32617188 5.48671875 6.32617188 3.83671875 6.32617188 2.13671875 C5.32199219 2.20890625 4.3178125 2.28109375 3.28320312 2.35546875 C-4.43319395 2.886457 -12.0658542 3.23506626 -19.80664062 3.07421875 C-22.84942432 3.14054646 -25.68168129 3.60062578 -28.67382812 4.13671875 C-30.34010111 4.17294208 -32.00788187 4.18571717 -33.67382812 4.13671875 C-33.34382812 5.12671875 -33.01382813 6.11671875 -32.67382812 7.13671875 C-31.68382812 7.46671875 -30.69382813 7.79671875 -29.67382812 8.13671875 C-29.67382812 9.45671875 -29.67382812 10.77671875 -29.67382812 12.13671875 C-28.68382812 12.13671875 -27.69382813 12.13671875 -26.67382812 12.13671875 C-27.50835433 14.64029736 -28.46754805 16.80457727 -29.67382812 19.13671875 C-31.34400577 16.32628951 -33.00937622 13.51304218 -34.67382812 10.69921875 C-35.38925781 9.49555664 -35.38925781 9.49555664 -36.11914062 8.26757812 C-36.79589844 7.12192383 -36.79589844 7.12192383 -37.48632812 5.953125 C-37.90527344 5.24615479 -38.32421875 4.53918457 -38.75585938 3.81079102 C-39.67382812 2.13671875 -39.67382812 2.13671875 -39.67382812 1.13671875 C-34.7666639 0.99207358 -29.8594391 0.84976276 -24.95214844 0.70947266 C-23.28806805 0.66158776 -21.62400484 0.6131013 -19.95996094 0.56396484 C-15.23440003 0.42464325 -10.50884577 0.29923825 -5.7824707 0.19091797 C-3.85456692 0.14136435 -1.9272065 0.07171954 0 0 Z " fill="#7529CB" transform="translate(190.673828125,145.86328125)"/>
<path d="M0 0 C2.31 0 4.62 0 7 0 C7 0.66 7 1.32 7 2 C8.299375 1.979375 9.59875 1.95875 10.9375 1.9375 C12.29165633 1.91600546 13.64756083 1.92851801 15 2 C15.33 2.33 15.66 2.66 16 3 C18.33297433 3.04092937 20.66705225 3.04241723 23 3 C23 5.31 23 7.62 23 10 C26.465 9.505 26.465 9.505 30 9 C30.061875 10.093125 30.12375 11.18625 30.1875 12.3125 C30.59877264 16.1474527 30.59877264 16.1474527 33.5625 17.8125 C34.366875 18.204375 35.17125 18.59625 36 19 C36 19.66 36 20.32 36 21 C36.66 21 37.32 21 38 21 C37.896875 21.9075 37.79375 22.815 37.6875 23.75 C37.65767883 27.49255712 38.83131766 30.02417133 40.4375 33.375 C44.57902497 42.66703336 44.78386531 53.07996854 43 63 C43.36858988 65.76864953 43.36858988 65.76864953 44 68 C43.01 68.495 43.01 68.495 42 69 C41.65048379 70.99723547 41.32173372 72.99810127 41 75 C39.88722372 78.74697548 38.75048126 82.49903748 37 86 C36.01 86 35.02 86 34 86 C34.18175781 85.44054687 34.36351562 84.88109375 34.55078125 84.3046875 C40.81304966 64.32965699 43.53943771 44.53033731 33.8125 25.1875 C25.99372208 11.61096094 14.7364295 5.30445535 0 1 C0 0.67 0 0.34 0 0 Z " fill="#8930D4" transform="translate(247,105)"/>
<path d="M0 0 C2.65641544 2.65641544 3.04926716 5.08793242 4.125 8.6875 C11.52810944 31.93348901 26.54839772 48.67004284 48 60 C56.66073116 64.31999759 65.70188554 67.37428662 75 70 C75 70.33 75 70.66 75 71 C70.55790643 71.10834375 66.38585329 70.70173653 62 70 C62 69.34 62 68.68 62 68 C59.525 68.495 59.525 68.495 57 69 C57 68.34 57 67.68 57 67 C51.69441506 64.74914578 46.42001692 63.10213964 40.6875 62.4375 C37 62 37 62 35 61 C35.66 59.68 36.32 58.36 37 57 C36.2575 56.7525 35.515 56.505 34.75 56.25 C31.75159001 54.88708637 30.12040455 53.49904822 28 51 C27.67 50.01 27.34 49.02 27 48 C26.34 47.67 25.68 47.34 25 47 C23 46 23 46 22 43 C19.98491642 42.26676204 19.98491642 42.26676204 18 42 C17.01 38.535 17.01 38.535 16 35 C15.01 35 14.02 35 13 35 C13 34.01 13 33.02 13 32 C12.34 32 11.68 32 11 32 C11 31.01 11 30.02 11 29 C10.34 28.67 9.68 28.34 9 28 C9.33 27.34 9.66 26.68 10 26 C9.01 26.33 8.02 26.66 7 27 C7.33 25.68 7.66 24.36 8 23 C7.34 23 6.68 23 6 23 C5.67 20.69 5.34 18.38 5 16 C4.01 15.67 3.02 15.34 2 15 C-0.34551123 10.06208162 -0.2134222 5.33555495 0 0 Z " fill="#430FC7" transform="translate(112,298)"/>
<path d="M0 0 C2.22201505 0.00186878 4.44403053 0.00329051 6.66604614 0.00428772 C12.46914845 0.00807671 18.2722251 0.01787543 24.07531738 0.0289917 C30.01505181 0.03928428 35.95479045 0.04380203 41.89453125 0.04882812 C53.51563618 0.0595015 65.13672219 0.07653361 76.7578125 0.09765625 C76.7578125 0.75765625 76.7578125 1.41765625 76.7578125 2.09765625 C79.7278125 2.59265625 79.7278125 2.59265625 82.7578125 3.09765625 C83.0878125 2.43765625 83.4178125 1.77765625 83.7578125 1.09765625 C84.2528125 3.07765625 84.2528125 3.07765625 84.7578125 5.09765625 C83.51540298 4.93689102 82.27299347 4.77612579 80.99293518 4.61048889 C75.32500268 3.98444346 69.69366243 3.92322237 63.99584961 3.89233398 C62.28212662 3.87748459 62.28212662 3.87748459 60.53378296 3.86233521 C56.78426129 3.83092743 53.03472698 3.80604523 49.28515625 3.78125 C46.67484725 3.76066255 44.06454145 3.73966563 41.45423889 3.71827698 C35.30280947 3.66855932 29.15135517 3.62354376 22.99987751 3.58025461 C15.99130855 3.53070222 8.9827841 3.47585144 1.9742583 3.42057502 C-12.43118142 3.30707666 -26.83666546 3.20016889 -41.2421875 3.09765625 C-30.09101516 -2.82251332 -12.34886448 -0.03074979 0 0 Z " fill="#934ACD" transform="translate(161.2421875,99.90234375)"/>
<path d="M0 0 C2.16796875 0.0078125 2.16796875 0.0078125 5 1 C7.13970536 3.38869817 8.68598073 6.12081299 10.3125 8.875 C10.81450928 9.69621338 11.31651855 10.51742676 11.83374023 11.36352539 C13.57656209 14.23039246 15.29033464 17.11324002 17 20 C17.68931206 21.16040282 18.37877056 22.32071866 19.06835938 23.48095703 C21.94093746 28.3177659 24.81340371 33.15448471 27.65551758 38.00927734 C28.63234497 39.67337646 28.63234497 39.67337646 29.62890625 41.37109375 C30.20713135 42.36036865 30.78535645 43.34964355 31.38110352 44.36889648 C32.929017 46.99184293 32.929017 46.99184293 34.72241211 49.21508789 C36 51 36 51 35.8125 53.1875 C35 55 35 55 33 56 C31 50.25 31 50.25 31 48 C28.69 47.34 26.38 46.68 24 46 C23.06576355 42.98968256 22.95550089 42.13349732 24 39 C23.36971413 37.31923769 22.70211894 35.65204456 22 34 C22 33.01 22 32.02 22 31 C20.68 30.67 19.36 30.34 18 30 C18 29.34 18 28.68 18 28 C17.34 28 16.68 28 16 28 C16 26.02 16 24.04 16 22 C15.01 22 14.02 22 13 22 C13 22.66 13 23.32 13 24 C12.34 24 11.68 24 11 24 C11.875 19.125 11.875 19.125 13 18 C12.195625 17.319375 11.39125 16.63875 10.5625 15.9375 C7.57711289 12.51522698 7.26218749 10.4571874 7 6 C4.13275314 6.57344937 3.1385485 6.8614515 1 9 C-0.4783226 6.04335481 -0.06032783 3.25770263 0 0 Z " fill="#450ACE" transform="translate(278,282)"/>
<path d="M0 0 C5.20736798 0.56601826 9.15991907 2.26735254 13.75 4.625 C14.45302246 4.98182861 15.15604492 5.33865723 15.88037109 5.70629883 C21.6117192 8.67589221 26.89199288 12.04541384 32 16 C32.62777344 16.4640625 33.25554687 16.928125 33.90234375 17.40625 C37.16999503 19.92810793 37.9579878 20.83195121 39 25 C35.04 24.67 31.08 24.34 27 24 C27.66 23.67 28.32 23.34 29 23 C29 22.34 29 21.68 29 21 C28.34 20.67 27.68 20.34 27 20 C27.66 19.01 28.32 18.02 29 17 C26.69 16.34 24.38 15.68 22 15 C22 15.66 22 16.32 22 17 C20.68 16.67 19.36 16.34 18 16 C18 13.69 18 11.38 18 9 C16.2365625 9.061875 16.2365625 9.061875 14.4375 9.125 C10.27590326 9.13983635 6.93512333 8.31170778 3 7 C3 6.01 3 5.02 3 4 C2.01 3.67 1.02 3.34 0 3 C0 2.01 0 1.02 0 0 Z " fill="#852CD3" transform="translate(267,65)"/>
<path d="M0 0 C0.33 0 0.66 0 1 0 C2.17840142 9.31636256 2.11829341 18.59706473 2.07516479 27.96761894 C2.06226968 30.79662196 2.05585334 33.62557749 2.05102539 36.4546051 C2.0396729 42.44892498 2.02039896 48.44320499 2 54.4375 C1.97637112 61.41205115 1.95601906 68.38658045 1.94406128 75.36116219 C1.93758637 78.14643973 1.92508571 80.93164874 1.91235352 83.71690369 C1.90872199 85.4199111 1.90537013 87.12291914 1.90234375 88.82592773 C1.89717743 89.59842865 1.89201111 90.37092957 1.88668823 91.1668396 C1.88634831 94.6059375 1.99896356 97.70163259 3 101 C3.06870889 102.78265218 3.08475546 104.56772551 3.0625 106.3515625 C3.05476563 107.36734375 3.04703125 108.383125 3.0390625 109.4296875 C3.02617188 110.48414063 3.01328125 111.53859375 3 112.625 C2.97455943 114.72130332 2.95350303 116.8176659 2.9375 118.9140625 C2.92009766 120.3055249 2.92009766 120.3055249 2.90234375 121.72509766 C2.84626611 124.03290035 2.84626611 124.03290035 4 126 C4.06996014 127.70702735 4.08440154 129.41668003 4.0625 131.125 C4.05347656 132.03507813 4.04445313 132.94515625 4.03515625 133.8828125 C4.02355469 134.58148438 4.01195313 135.28015625 4 136 C-3.31134483 123.50915643 -0.25464038 102.88846142 -0.1953125 89.0625 C-0.1915751 86.48462027 -0.18873157 83.90673909 -0.18673706 81.32885742 C-0.17992893 75.28030396 -0.16423071 69.2318359 -0.14403808 63.18331432 C-0.12152145 56.28586616 -0.11064642 49.38841407 -0.10064721 42.49093819 C-0.07985873 28.32725268 -0.04478232 14.16362899 0 0 Z " fill="#621BC7" transform="translate(66,162)"/>
<path d="M0 0 C0.66 0 1.32 0 2 0 C3.7265625 2.3359375 3.7265625 2.3359375 5.625 5.375 C6.25664062 6.37273437 6.88828125 7.37046875 7.5390625 8.3984375 C9 11 9 11 9 13 C11.31 13 13.62 13 16 13 C16 13.66 16 14.32 16 15 C15.01 15.33 14.02 15.66 13 16 C13.33 17.65 13.66 19.3 14 21 C14.99 21.33 15.98 21.66 17 22 C17 22.66 17 23.32 17 24 C17.62767503 25.18809916 18.30010916 26.35295668 19 27.5 C21 30.77777778 21 30.77777778 21 33 C21.66 33.33 22.32 33.66 23 34 C23.70394612 35.31403276 24.36345658 36.6520257 25 38 C25.99414593 39.67016516 26.9935725 41.33720673 28 43 C28.33 43.66 28.66 44.32 29 45 C31.02463255 45.65213292 31.02463255 45.65213292 33 46 C34.125 51.75 34.125 51.75 33 54 C33.99 54 34.98 54 36 54 C37.25664978 56.90600261 38 58.79604584 38 62 C33.60121322 60.53373774 32.60830484 57.08647728 30.5625 53.1875 C26.90018217 46.40276044 23.11414772 39.72313903 19.125 33.125 C18.6309668 32.30612305 18.13693359 31.48724609 17.62792969 30.64355469 C16.08763536 28.09427322 14.5441846 25.54692665 13 23 C10.767113 19.31473413 8.53868506 15.62681723 6.3125 11.9375 C5.79510254 11.08623535 5.27770508 10.2349707 4.74462891 9.35791016 C4.26815918 8.56819824 3.79168945 7.77848633 3.30078125 6.96484375 C2.87966064 6.2699585 2.45854004 5.57507324 2.0246582 4.85913086 C1 3 1 3 0 0 Z " fill="#430EC6" transform="translate(243,301)"/>
<path d="M0 0 C1.32 0 2.64 0 4 0 C4.36504603 1.58086048 4.71660506 3.16483907 5.0625 4.75 C5.25972656 5.63171875 5.45695312 6.5134375 5.66015625 7.421875 C5.99825872 9.98679028 5.81158635 11.57091639 5 14 C4.05125 13.814375 3.1025 13.62875 2.125 13.4375 C-0.89868793 12.71313368 -0.89868793 12.71313368 -3 14 C-3.495 13.01 -3.495 13.01 -4 12 C-4.99692619 12.00333092 -4.99692619 12.00333092 -6.01399231 12.00672913 C-12.97408507 12.02897011 -19.93416762 12.04398461 -26.89428711 12.05493164 C-29.4867392 12.05993918 -32.0791885 12.06674714 -34.67163086 12.07543945 C-38.4126047 12.08766251 -42.15354098 12.09326426 -45.89453125 12.09765625 C-47.04081497 12.10281754 -48.18709869 12.10797882 -49.36811829 12.11329651 C-67.77088046 12.11455977 -67.77088046 12.11455977 -72 10 C-74.0374763 9.77141886 -76.08040303 9.58975722 -78.125 9.4375 C-79.76855469 9.31181641 -79.76855469 9.31181641 -81.4453125 9.18359375 C-82.28835937 9.12300781 -83.13140625 9.06242187 -84 9 C-83.67 8.34 -83.34 7.68 -83 7 C-81.85337891 7.09087891 -81.85337891 7.09087891 -80.68359375 7.18359375 C-78.42163913 7.36052161 -76.15931577 7.53277113 -73.89672852 7.70141602 C-71.61160018 7.87651231 -69.32713779 8.06181616 -67.04492188 8.27148438 C-53.74955237 9.37184787 -40.41314853 9.11371245 -27.08343506 9.06866455 C-23.68388496 9.05829475 -20.2843271 9.05383814 -16.88476562 9.04882812 C-10.25649065 9.03789424 -3.62824958 9.02122942 3 9 C2.01 6.03 1.02 3.06 0 0 Z " fill="#3D09BD" transform="translate(280,364)"/>
<path d="M0 0 C0 0.33 0 0.66 0 1 C-1.15628906 1.07347656 -1.15628906 1.07347656 -2.3359375 1.1484375 C-3.33882812 1.22320312 -4.34171875 1.29796875 -5.375 1.375 C-6.37273437 1.44460937 -7.37046875 1.51421875 -8.3984375 1.5859375 C-11.15508879 1.76363964 -11.15508879 1.76363964 -13 4 C-13.33 4.66 -13.66 5.32 -14 6 C-14.99 6 -15.98 6 -17 6 C-17 5.34 -17 4.68 -17 4 C-17.66 4 -18.32 4 -19 4 C-19.66 5.32 -20.32 6.64 -21 8 C-24.3 8 -27.6 8 -31 8 C-31.33 8.66 -31.66 9.32 -32 10 C-32.66 10 -33.32 10 -34 10 C-34.33 10.99 -34.66 11.98 -35 13 C-35.99 13.495 -35.99 13.495 -37 14 C-38.35308313 15.31328657 -39.68870078 16.64499081 -41 18 C-41 16.68 -41 15.36 -41 14 C-40.34 14 -39.68 14 -39 14 C-39 13.01 -39 12.02 -39 11 C-38.34 11 -37.68 11 -37 11 C-36.8453125 9.8553125 -36.8453125 9.8553125 -36.6875 8.6875 C-35.92745936 5.71643204 -35.328635 4.90100141 -33 3 C-31.13745117 2.3840332 -31.13745117 2.3840332 -29.04296875 2.05078125 C-28.26606689 1.92485596 -27.48916504 1.79893066 -26.6887207 1.66918945 C-25.45061646 1.49262817 -25.45061646 1.49262817 -24.1875 1.3125 C-22.92329224 1.12143677 -22.92329224 1.12143677 -21.63354492 0.92651367 C-14.3822442 -0.09702977 -7.3228774 -0.32254109 0 0 Z " fill="#8727D8" transform="translate(117,58)"/>
<path d="M0 0 C1.98 0 3.96 0 6 0 C6 0.66 6 1.32 6 2 C6.99 2 7.98 2 9 2 C9 2.66 9 3.32 9 4 C9.66 4.66 10.32 5.32 11 6 C9.02 6 7.04 6 5 6 C4.814375 7.3303125 4.814375 7.3303125 4.625 8.6875 C4.29436411 11.05390833 3.9297932 13.40685414 3.5234375 15.76171875 C0.30289769 34.91672046 0.57122179 54.62070395 0 74 C-0.33 74 -0.66 74 -1 74 C-1.07715349 67.61783756 -1.12905315 61.23579873 -1.16479492 54.85327148 C-1.17972196 52.68981432 -1.20007093 50.52638655 -1.22631836 48.36303711 C-1.59459861 17.18919722 -1.59459861 17.18919722 3 8 C2.01 7.67 1.02 7.34 0 7 C0 4.69 0 2.38 0 0 Z " fill="#833AC6" transform="translate(109,98)"/>
<path d="M0 0 C2.86602314 1.43301157 3.00284764 3.06888136 4.0625 6.0625 C7.07640878 15.45285013 7.73989273 25.29027606 6 35 C6.36858988 37.76864953 6.36858988 37.76864953 7 40 C6.01 40.495 6.01 40.495 5 41 C4.65048379 42.99723547 4.32173372 44.99810127 4 47 C2.88722372 50.74697548 1.75048126 54.49903748 0 58 C-0.99 58 -1.98 58 -3 58 C-2.81824219 57.44054687 -2.63648438 56.88109375 -2.44921875 56.3046875 C2.80550364 39.54347045 5.39854835 23.78364012 0.65625 6.63671875 C0 4 0 4 0 0 Z " fill="#7324CD" transform="translate(284,133)"/>
<path d="M0 0 C1.1858519 0.02361099 2.3717038 0.04722198 3.5934906 0.07154846 C7.35282974 0.14765673 11.11193481 0.23190642 14.87109375 0.31640625 C17.43162946 0.3696799 19.99217634 0.42241987 22.55273438 0.47460938 C28.80482991 0.60319973 35.05675387 0.73846126 41.30859375 0.87890625 C41.80359375 1.86890625 41.80359375 1.86890625 42.30859375 2.87890625 C34.84996416 2.90212595 27.39134243 2.9198703 19.93268394 2.93071842 C16.46894423 2.93592623 13.00522934 2.94298554 9.54150391 2.9543457 C5.55501609 2.96733786 1.56853816 2.97215185 -2.41796875 2.9765625 C-3.65568024 2.98172379 -4.89339172 2.98688507 -6.16860962 2.99220276 C-7.90973526 2.99231606 -7.90973526 2.99231606 -9.68603516 2.99243164 C-10.70307526 2.99465225 -11.72011536 2.99687286 -12.76797485 2.99916077 C-15.81372173 2.87387484 -18.69797617 2.4410641 -21.69140625 1.87890625 C-21.69140625 1.54890625 -21.69140625 1.21890625 -21.69140625 0.87890625 C-14.40278455 -0.11912079 -7.34710928 -0.17504528 0 0 Z " fill="#3C05C4" transform="translate(234.69140625,416.12109375)"/>
<path d="M0 0 C2.64294064 2.39763777 4.32526203 4.99209277 6.125 8.0625 C6.64320313 8.94035156 7.16140625 9.81820313 7.6953125 10.72265625 C8.50040453 12.12795161 9.27570334 13.55140669 10 15 C12.99152582 14.22520264 12.99152582 14.22520264 16 13 C16.33 12.01 16.66 11.02 17 10 C17.99 9.34 18.98 8.68 20 8 C20.66 7.34 21.32 6.68 22 6 C21.42460686 11.20285068 19.70581107 15.23956036 17.4375 19.875 C17.10814453 20.56335938 16.77878906 21.25171875 16.43945312 21.9609375 C15.63304639 23.6438733 14.81745506 25.32240293 14 27 C11.00862546 24.26130287 10.20917739 21.86936763 9 18 C8.34 17.01 7.68 16.02 7 15 C7 14.01 7 13.02 7 12 C6.34 12 5.68 12 5 12 C4.34 10.35 3.68 8.7 3 7 C2.34 7 1.68 7 1 7 C0.67 4.69 0.34 2.38 0 0 Z " fill="#2A078E" transform="translate(266,254)"/>
<path d="M0 0 C2 1 2 1 2.61743164 2.74121094 C7.2039415 24.16513193 2.50292474 45.56962123 -7 65 C-7.33 65 -7.66 65 -8 65 C-8 63.35 -8 61.7 -8 60 C-7.34 60 -6.68 60 -6 60 C-5.34 56.37 -4.68 52.74 -4 49 C-3.34 49 -2.68 49 -2 49 C-2 46.69 -2 44.38 -2 42 C-1.67 42 -1.34 42 -1 42 C-1 39.69 -1 37.38 -1 35 C-0.01 34.505 -0.01 34.505 1 34 C1.02934144 30.02084915 1.04691265 26.04172663 1.0625 22.0625 C1.07087891 20.94552734 1.07925781 19.82855469 1.08789062 18.67773438 C1.10641749 12.36007333 0.84339417 6.26236773 0 0 Z " fill="#7F38C7" transform="translate(332,136)"/>
<path d="M0 0 C0.66 0 1.32 0 2 0 C2.05928414 3.41659056 2.09401725 6.8330449 2.125 10.25 C2.14175781 11.19875 2.15851563 12.1475 2.17578125 13.125 C2.22565735 20.50666231 1.25005018 26.49969894 0 34 C-16.5 34 -33 34 -50 34 C-50 33.67 -50 33.34 -50 33 C-45.5567287 32.85469908 -41.1133723 32.71244322 -36.66992188 32.57275391 C-35.16501369 32.52504511 -33.66012958 32.47656936 -32.15527344 32.42724609 C-22.43179977 32.10918854 -12.7298508 31.93023807 -3 32 C-1.43078031 27.79889606 -0.7188979 24.20289602 -0.5859375 19.7265625 C-0.54726563 18.57285156 -0.50859375 17.41914063 -0.46875 16.23046875 C-0.4378125 15.04066406 -0.406875 13.85085938 -0.375 12.625 C-0.33632813 11.41199219 -0.29765625 10.19898438 -0.2578125 8.94921875 C-0.16386214 5.96629479 -0.07819193 2.98337175 0 0 Z " fill="#3B0AB8" transform="translate(334,386)"/>
<path d="M0 0 C1.32 0.33 2.64 0.66 4 1 C6.125 7.625 6.125 7.625 5 11 C6.423125 10.2265625 6.423125 10.2265625 7.875 9.4375 C8.90625 8.963125 9.9375 8.48875 11 8 C11.66 8.33 12.32 8.66 13 9 C12.38461538 15.52307692 12.38461538 15.52307692 10.4375 17.9375 C9.963125 18.288125 9.48875 18.63875 9 19 C9.66 19 10.32 19 11 19 C11.33 20.98 11.66 22.96 12 25 C7.8830697 21.40249549 5.44951483 17.0520664 2.75 12.375 C2.29109375 11.59898437 1.8321875 10.82296875 1.359375 10.0234375 C-2 4.26450893 -2 4.26450893 -2 2 C-1.34 2 -0.68 2 0 2 C0 1.34 0 0.68 0 0 Z " fill="#5008DA" transform="translate(216,250)"/>
<path d="M0 0 C0 0.99 0 1.98 0 3 C0.3403125 4.485 0.3403125 4.485 0.6875 6 C1 9 1 9 -0.25 10.875 C-2 12 -2 12 -5 12 C-5.33 12.66 -5.66 13.32 -6 14 C-5.34 14 -4.68 14 -4 14 C-4.66 15.98 -5.32 17.96 -6 20 C-6.99 19.67 -7.98 19.34 -9 19 C-8.855625 19.556875 -8.71125 20.11375 -8.5625 20.6875 C-7.97230872 23.11384195 -7.476571 25.54906345 -7 28 C-7.66 28 -8.32 28 -9 28 C-9.73033661 26.78377829 -10.43351354 25.55122244 -11.125 24.3125 C-11.51945313 23.62800781 -11.91390625 22.94351563 -12.3203125 22.23828125 C-13 20 -13 20 -12.43359375 17.68359375 C-10.54593613 14.15002213 -8.30392498 10.97663887 -5.9375 7.75 C-5.47794922 7.11320313 -5.01839844 6.47640625 -4.54492188 5.8203125 C-1.19148166 1.19148166 -1.19148166 1.19148166 0 0 Z " fill="#4916AD" transform="translate(267,216)"/>
<path d="M0 0 C0.33 0 0.66 0 1 0 C1 16.83 1 33.66 1 51 C-2.14984489 47.85015511 -1.95185237 44.13715089 -2.04962158 39.79742432 C-2.03691247 37.32417929 -1.98295961 34.85512433 -1.9140625 32.3828125 C-1.89282318 31.48505096 -1.87158386 30.58728943 -1.84970093 29.662323 C-1.80368539 27.77806563 -1.75477987 25.89387683 -1.703125 24.00976562 C-1.62468648 21.11342322 -1.55782026 18.21697043 -1.4921875 15.3203125 C-1.44599816 13.48696176 -1.39914693 11.65362756 -1.3515625 9.8203125 C-1.33171295 8.95060822 -1.3118634 8.08090393 -1.29141235 7.18484497 C-1.11519752 1.11519752 -1.11519752 1.11519752 0 0 Z " fill="#4F13BE" transform="translate(107,223)"/>
<path d="M0 0 C2 1 2 1 3.25 3.8125 C4 7 4 7 3.125 9.375 C2.75375 9.91125 2.3825 10.4475 2 11 C1.34 11 0.68 11 0 11 C-0.0825 11.598125 -0.165 12.19625 -0.25 12.8125 C-1.20455872 15.5966296 -2.57132271 16.43311142 -5 18 C-5.66 17.34 -6.32 16.68 -7 16 C-7 9.36968778 -3.85730421 5.20205247 0 0 Z " fill="#6517D0" transform="translate(273,206)"/>
<path d="M0 0 C0 0.33 0 0.66 0 1 C-5.67495216 1.81352241 -11.14692814 2.13614934 -16.875 2.09765625 C-17.68493408 2.0962413 -18.49486816 2.09482635 -19.3293457 2.09336853 C-21.88626994 2.08782383 -24.44310276 2.07528207 -27 2.0625 C-28.74609247 2.05747784 -30.49218634 2.05291619 -32.23828125 2.04882812 C-36.49222209 2.0378726 -40.74609561 2.02064694 -45 2 C-32.90049136 -4.49408656 -13.25199876 -1.23274407 0 0 Z " fill="#8130C6" transform="translate(165,101)"/>
<path d="M0 0 C1.3303125 0.495 1.3303125 0.495 2.6875 1 C5.70923347 1.91222143 7.88373706 2.18330958 11 2 C11.33 3.98 11.66 5.96 12 8 C14.38980618 8.64340935 16.58755718 9.05995481 19.0625 9.3125 C22 10 22 10 23.875 11.9375 C25 14 25 14 25 16 C25.99 16 26.98 16 28 16 C28 16.66 28 17.32 28 18 C22.72867304 16.52567574 18.56637806 14.10157021 14 11.1875 C12.97132813 10.54844727 12.97132813 10.54844727 11.921875 9.89648438 C7.66161679 7.2094322 3.75515992 4.36204162 0 1 C0 0.67 0 0.34 0 0 Z " fill="#410CCA" transform="translate(121,385)"/>
<path d="M0 0 C0.33 0 0.66 0 1 0 C1.06058594 1.03640625 1.12117188 2.0728125 1.18359375 3.140625 C1.26803371 4.51042873 1.35267997 5.88021975 1.4375 7.25 C1.47681641 7.93191406 1.51613281 8.61382812 1.55664062 9.31640625 C1.77718504 13.14445166 1.77718504 13.14445166 2.51586914 16.89501953 C3.10100883 19.43918213 3.09506241 21.74159451 3.0625 24.3515625 C3.05476563 25.36734375 3.04703125 26.383125 3.0390625 27.4296875 C3.02617188 28.48414063 3.01328125 29.53859375 3 30.625 C2.97455943 32.72130332 2.95350303 34.8176659 2.9375 36.9140625 C2.92009766 38.3055249 2.92009766 38.3055249 2.90234375 39.72509766 C2.84626611 42.03290035 2.84626611 42.03290035 4 44 C4.06996014 45.70702735 4.08440154 47.41668003 4.0625 49.125 C4.05347656 50.03507812 4.04445313 50.94515625 4.03515625 51.8828125 C4.02355469 52.58148438 4.01195313 53.28015625 4 54 C-2.09318302 43.81590827 -0.25652793 27.51986145 -0.125 16 C-0.11492984 14.43490169 -0.10581126 12.86979696 -0.09765625 11.3046875 C-0.07600877 7.53629437 -0.04171227 3.76822222 0 0 Z " fill="#4A10BF" transform="translate(66,244)"/>
<path d="M0 0 C0.66 0 1.32 0 2 0 C2.67154933 1.28913487 3.33708859 2.58140204 4 3.875 C4.37125 4.59429687 4.7425 5.31359375 5.125 6.0546875 C6 8 6 8 6 10 C6.99 10.33 7.98 10.66 9 11 C11 13 11 13 11 16 C12.98 15.67 14.96 15.34 17 15 C17 15.99 17 16.98 17 18 C16.34 18 15.68 18 15 18 C15 18.66 15 19.32 15 20 C15.66 20 16.32 20 17 20 C16.67 21.65 16.34 23.3 16 25 C12.21892369 23.73964123 11.84442367 22.54514856 9.86328125 19.16015625 C9.28642578 18.17982422 8.70957031 17.19949219 8.11523438 16.18945312 C7.52033203 15.15755859 6.92542969 14.12566406 6.3125 13.0625 C5.70599609 12.03447266 5.09949219 11.00644531 4.47460938 9.94726562 C0 2.28154 0 2.28154 0 0 Z " fill="#4609D0" transform="translate(228,275)"/>
<path d="M0 0 C1.46015291 0.28241641 2.91809793 0.57626614 4.375 0.875 C5.18710938 1.03742188 5.99921875 1.19984375 6.8359375 1.3671875 C9 2 9 2 11 4 C13.06874034 4.6425235 13.06874034 4.6425235 15 5 C15 5.66 15 6.32 15 7 C16.98 7 18.96 7 21 7 C21 7.66 21 8.32 21 9 C24.63 9 28.26 9 32 9 C32 9.99 32 10.98 32 12 C25.52185823 11.47090874 19.87838928 10.2543556 13.75 8.125 C12.97398437 7.86847656 12.19796875 7.61195313 11.3984375 7.34765625 C7.3186893 5.96221275 3.51038718 4.56960342 0 2 C0 1.34 0 0.68 0 0 Z " fill="#4511C8" transform="translate(150,402)"/>
<path d="M0 0 C0.33 0.66 0.66 1.32 1 2 C0.12304688 3.88842773 0.12304688 3.88842773 -1.28125 6.18359375 C-1.79075195 7.02438477 -2.30025391 7.86517578 -2.82519531 8.73144531 C-3.65422363 10.07094238 -3.65422363 10.07094238 -4.5 11.4375 C-5.05010742 12.33952148 -5.60021484 13.24154297 -6.16699219 14.17089844 C-10.03517465 20.49506976 -13.95366133 26.78801529 -18 33 C-18.99 31.68 -19.98 30.36 -21 29 C-20.34 28.67 -19.68 28.34 -19 28 C-18.67 27.01 -18.34 26.02 -18 25 C-17.01 25 -16.02 25 -15 25 C-14.67 23.68 -14.34 22.36 -14 21 C-13.34 21 -12.68 21 -12 21 C-11.67 19.35 -11.34 17.7 -11 16 C-10.34 16 -9.68 16 -9 16 C-9 15.01 -9 14.02 -9 13 C-8.34 13 -7.68 13 -7 13 C-6.8453125 11.576875 -6.8453125 11.576875 -6.6875 10.125 C-6 7 -6 7 -3 5 C-1.94895617 3.36504293 -0.94011682 1.70116376 0 0 Z " fill="#5A1FC2" transform="translate(307,229)"/>
<path d="M0 0 C3.36232275 3.04210153 5.27079596 6.72389293 7.5 10.625 C8.84602557 12.99253384 8.84602557 12.99253384 10.61328125 14.45703125 C12.61287659 16.68193311 12.74047486 18.76464332 13.1875 21.6875 C13.34605469 22.68136719 13.50460937 23.67523438 13.66796875 24.69921875 C13.77753906 25.45847656 13.88710938 26.21773438 14 27 C11.00862546 24.26130287 10.20917739 21.86936763 9 18 C8.34 17.01 7.68 16.02 7 15 C7 14.01 7 13.02 7 12 C6.34 12 5.68 12 5 12 C4.34 10.35 3.68 8.7 3 7 C2.34 7 1.68 7 1 7 C0.67 4.69 0.34 2.38 0 0 Z " fill="#3B05BA" transform="translate(266,254)"/>
<path d="M0 0 C4.40460936 3.64866954 6.33830212 8.29732682 8.6875 13.375 C9.09033203 14.21289062 9.49316406 15.05078125 9.90820312 15.9140625 C11.95477953 20.27460721 13.53341804 24.14438434 14 29 C11.2027092 26.93243723 10.97307727 25.85559629 10.3125 22.3125 C10.209375 21.219375 10.10625 20.12625 10 19 C9.01 18.67 8.02 18.34 7 18 C6.28976972 15.69175158 5.98738636 13.41696017 5.625 11.03125 C5.41875 10.3609375 5.2125 9.690625 5 9 C4.01 8.67 3.02 8.34 2 8 C0.5522078 5.10441559 0 3.25811062 0 0 Z " fill="#4311C1" transform="translate(319,343)"/>
<path d="M0 0 C-0.21491466 6.76981181 -1.64170644 12.53198581 -3.875 18.875 C-4.13168457 19.61226318 -4.38836914 20.34952637 -4.65283203 21.10913086 C-6.01376964 24.84593536 -7.34432508 27.9626712 -10 31 C-10 29.35 -10 27.7 -10 26 C-9.34 26 -8.68 26 -8 26 C-7.34 22.37 -6.68 18.74 -6 15 C-5.34 15 -4.68 15 -4 15 C-4 12.69 -4 10.38 -4 8 C-3.67 8 -3.34 8 -3 8 C-3 5.69 -3 3.38 -3 1 C-1 0 -1 0 0 0 Z " fill="#6C29C3" transform="translate(334,170)"/>
<path d="M0 0 C4.75 0.75 4.75 0.75 7 3 C6.01 3.33 5.02 3.66 4 4 C3.67 4.66 3.34 5.32 3 6 C2.34 6 1.68 6 1 6 C0.67 6.99 0.34 7.98 0 9 C-0.99 9.495 -0.99 9.495 -2 10 C-3.35308313 11.31328657 -4.68870078 12.64499081 -6 14 C-6 12.68 -6 11.36 -6 10 C-5.34 10 -4.68 10 -4 10 C-4 9.01 -4 8.02 -4 7 C-3.34 7 -2.68 7 -2 7 C-1.855625 6.21625 -1.71125 5.4325 -1.5625 4.625 C-1 2 -1 2 0 0 Z " fill="#8926DC" transform="translate(82,62)"/>
<path d="M0 0 C0.66 0 1.32 0 2 0 C1.88506243 1.89646998 1.75760358 3.79218332 1.625 5.6875 C1.55539063 6.74324219 1.48578125 7.79898438 1.4140625 8.88671875 C1 12 1 12 0.03125 14.375 C-1.37808157 17.96238945 -1.70924458 21.49913676 -2.125 25.3125 C-2.21136719 26.05306641 -2.29773438 26.79363281 -2.38671875 27.55664062 C-2.59734705 29.37038435 -2.79952986 31.18510543 -3 33 C-3.33 33 -3.66 33 -4 33 C-4.65860545 21.92567134 -2.76708357 10.71480392 0 0 Z " fill="#883DC8" transform="translate(70,86)"/>
<path d="M0 0 C1.98 0 3.96 0 6 0 C6 0.66 6 1.32 6 2 C6.99 2 7.98 2 9 2 C9 2.66 9 3.32 9 4 C9.66 4.66 10.32 5.32 11 6 C8.36 6 5.72 6 3 6 C3 6.66 3 7.32 3 8 C2.01 7.67 1.02 7.34 0 7 C0 4.69 0 2.38 0 0 Z " fill="#8B24DC" transform="translate(109,98)"/>
<path d="M0 0 C1.4540625 0.0309375 1.4540625 0.0309375 2.9375 0.0625 C2.2775 2.0425 1.6175 4.0225 0.9375 6.0625 C-0.0525 5.7325 -1.0425 5.4025 -2.0625 5.0625 C-1.918125 5.619375 -1.77375 6.17625 -1.625 6.75 C-1.03480872 9.17634195 -0.539071 11.61156345 -0.0625 14.0625 C-0.7225 14.0625 -1.3825 14.0625 -2.0625 14.0625 C-6.28796973 7.02587066 -6.28796973 7.02587066 -5.375 3.125 C-3.43092105 0.0700188 -3.43092105 0.0700188 0 0 Z " fill="#31069F" transform="translate(260.0625,229.9375)"/>
<path d="M0 0 C0.80836304 0.30236572 0.80836304 0.30236572 1.63305664 0.61083984 C4.10851602 1.53499011 6.5854882 2.4550192 9.0625 3.375 C10.33383789 3.85066406 10.33383789 3.85066406 11.63085938 4.3359375 C16.3809887 6.09660319 21.10712326 7.6854958 26 9 C26 9.33 26 9.66 26 10 C21.55790643 10.10834375 17.38585329 9.70173653 13 9 C13 8.34 13 7.68 13 7 C11.35 7.33 9.7 7.66 8 8 C8 7.34 8 6.68 8 6 C7.236875 5.71125 6.47375 5.4225 5.6875 5.125 C3 4 3 4 0 2 C0 1.34 0 0.68 0 0 Z " fill="#400EC1" transform="translate(161,359)"/>
<path d="M0 0 C1.32 0 2.64 0 4 0 C4.36504603 1.58086048 4.71660506 3.16483907 5.0625 4.75 C5.25972656 5.63171875 5.45695312 6.5134375 5.66015625 7.421875 C5.99825872 9.98679028 5.81158635 11.57091639 5 14 C4.05125 13.814375 3.1025 13.62875 2.125 13.4375 C-0.89868793 12.71313368 -0.89868793 12.71313368 -3 14 C-3 13.01 -3 12.02 -3 11 C-1.02 10.34 0.96 9.68 3 9 C2.01 6.03 1.02 3.06 0 0 Z " fill="#420BCD" transform="translate(280,364)"/>
<path d="M0 0 C1.91541138 -0.10841951 3.83259773 -0.18578079 5.75 -0.25 C6.81734375 -0.29640625 7.8846875 -0.3428125 8.984375 -0.390625 C12 0 12 0 14.40625 1.875 C16 4 16 4 15.75 6.25 C15.5025 6.8275 15.255 7.405 15 8 C13.35 7.67 11.7 7.34 10 7 C10 5.35 10 3.7 10 2 C6.7 1.67 3.4 1.34 0 1 C0 0.67 0 0.34 0 0 Z " fill="#842FD9" transform="translate(187,146)"/>
<path d="M0 0 C1 2 1 2 1 6 C-0.62102968 7.71108689 -2.29503463 9.37253306 -4 11 C-5.37843192 12.96918846 -6.71810412 14.96664791 -8 17 C-8.66 17.99 -9.32 18.98 -10 20 C-10.66 19.67 -11.32 19.34 -12 19 C-8.04 12.73 -4.08 6.46 0 0 Z " fill="#EADAF3" transform="translate(310,227)"/>
<path d="M0 0 C1.73333333 5.2 1.73333333 5.2 2 8 C0.5625 10.8125 0.5625 10.8125 -1 13 C-1.99 12.34 -2.98 11.68 -4 11 C-3.56179109 6.44262737 -3.14958831 3.42346555 0 0 Z " fill="#5B15C2" transform="translate(270,211)"/>
<path d="M0 0 C2.475 0.495 2.475 0.495 5 1 C6.125 4.75 6.125 4.75 5 7 C5.66 7 6.32 7 7 7 C7.33 8.98 7.66 10.96 8 13 C4.32117927 9.71533863 2.24849899 6.33639092 0 2 C0 1.34 0 0.68 0 0 Z M6 3 C8 4 8 4 8 4 Z " fill="#5214CB" transform="translate(220,262)"/>
<path d="M0 0 C0.99 0.33 1.98 0.66 3 1 C3.6875 3.0625 3.6875 3.0625 4 5 C5.32 5.33 6.64 5.66 8 6 C7.95875 6.78375 7.9175 7.5675 7.875 8.375 C7.71271266 11.16116119 7.71271266 11.16116119 10 13 C9.625 15.125 9.625 15.125 9 17 C7.49462965 14.54481265 5.99555574 12.0861548 4.5 9.625 C4.07074219 8.92632812 3.64148438 8.22765625 3.19921875 7.5078125 C0 2.2265625 0 2.2265625 0 0 Z " fill="#732CCA" transform="translate(162,165)"/>
<path d="M0 0 C0.66 0 1.32 0 2 0 C6.84535765 6.40279403 10.45851068 13.81583595 14 21 C13.34 21.33 12.68 21.66 12 22 C9.99654339 18.52281278 7.99781651 15.04293033 6 11.5625 C5.42765625 10.56927734 4.8553125 9.57605469 4.265625 8.55273438 C3.72421875 7.60849609 3.1828125 6.66425781 2.625 5.69140625 C2.12226563 4.81685791 1.61953125 3.94230957 1.1015625 3.04125977 C0 1 0 1 0 0 Z " fill="#6A2CC4" transform="translate(172,182)"/>
<path d="M0 0 C2.37528151 0.14203337 4.75015251 0.28851612 7.125 0.4375 C7.79015625 0.47681641 8.4553125 0.51613281 9.140625 0.55664062 C13.15018817 0.812152 17.04994196 1.26782413 21 2 C21 2.33 21 2.66 21 3 C16.05 3.33 11.1 3.66 6 4 C6 3.34 6 2.68 6 2 C4.02 2 2.04 2 0 2 C0 1.34 0 0.68 0 0 Z " fill="#883BCD" transform="translate(229,58)"/>
<path d="M0 0 C1.9375 0.3125 1.9375 0.3125 4 1 C4.33 1.99 4.66 2.98 5 4 C4.34 4.66 3.68 5.32 3 6 C3.33 6.33 3.66 6.66 4 7 C4.04063832 8.66617115 4.042721 10.33388095 4 12 C1.25722422 8.80009492 -0.6302836 5.99500618 -2 2 C-1.34 2 -0.68 2 0 2 C0 1.34 0 0.68 0 0 Z " fill="#5011CB" transform="translate(216,250)"/>
<path d="M0 0 C0.33 0 0.66 0 1 0 C1 2.31 1 4.62 1 7 C0.34 7 -0.32 7 -1 7 C-1.04898437 7.63808594 -1.09796875 8.27617187 -1.1484375 8.93359375 C-1.22320312 9.75988281 -1.29796875 10.58617187 -1.375 11.4375 C-1.47941406 12.67306641 -1.47941406 12.67306641 -1.5859375 13.93359375 C-1.72257812 14.61550781 -1.85921875 15.29742187 -2 16 C-2.66 16.33 -3.32 16.66 -4 17 C-4.08153933 15.41753293 -4.13943557 13.83383727 -4.1875 12.25 C-4.22230469 11.36828125 -4.25710938 10.4865625 -4.29296875 9.578125 C-3.94483516 6.51454939 -2.94565271 5.33282289 -1 3 C-0.67 2.01 -0.34 1.02 0 0 Z " fill="#6E17DB" transform="translate(329,178)"/>
<path d="M0 0 C0 0.33 0 0.66 0 1 C-0.73605469 1.04898438 -1.47210938 1.09796875 -2.23046875 1.1484375 C-3.69419922 1.26058594 -3.69419922 1.26058594 -5.1875 1.375 C-6.15042969 1.44460937 -7.11335938 1.51421875 -8.10546875 1.5859375 C-11.02331952 1.88224599 -11.02331952 1.88224599 -13.65625 3.09375 C-16.95571797 4.36954428 -18.83136177 3.3264067 -22 2 C-22 1.67 -22 1.34 -22 1 C-14.66236293 -0.17402193 -7.41834582 -0.09377123 0 0 Z " fill="#8637C9" transform="translate(117,58)"/>
<path d="M0 0 C3.01727584 1.50863792 3.17535143 3.68315363 4.25 6.8125 C4.62640625 7.87082031 5.0028125 8.92914063 5.390625 10.01953125 C6 13 6 13 5.109375 15.38671875 C4.56023437 16.18529297 4.56023437 16.18529297 4 17 C3.67 17 3.34 17 3 17 C2.49453964 14.91798472 1.99583165 12.83432933 1.5 10.75 C1.2215625 9.58984375 0.943125 8.4296875 0.65625 7.234375 C0 4 0 4 0 0 Z " fill="#7D2ECD" transform="translate(284,133)"/>
<path d="M0 0 C2.625 0.9375 2.625 0.9375 5 2 C5 3.32 5 4.64 5 6 C2.36 5.34 -0.28 4.68 -3 4 C-2.67 3.01 -2.34 2.02 -2 1 C-1.34 0.67 -0.68 0.34 0 0 Z " fill="#4101D9" transform="translate(150,355)"/>
<path d="M0 0 C2.9301585 2.63714265 5.0470421 5.58232367 7 9 C6.875 11.3125 6.875 11.3125 6 13 C5.01 13.495 5.01 13.495 4 14 C2.38262517 9.37892907 1.14751403 4.7539867 0 0 Z " fill="#420DCB" transform="translate(307,324)"/>
<path d="M0 0 C0.66 0 1.32 0 2 0 C2.67154933 1.28913487 3.33708859 2.58140204 4 3.875 C4.37125 4.59429687 4.7425 5.31359375 5.125 6.0546875 C6 8 6 8 6 10 C6.99 10.33 7.98 10.66 9 11 C9 12.65 9 14.3 9 16 C5.49702126 11.97806144 0 5.60566856 0 0 Z " fill="#4D1AC0" transform="translate(228,275)"/>
<path d="M0 0 C0.88336837 2.4667645 1.1312406 3.63859372 0.22265625 6.140625 C-0.16019531 6.83671875 -0.54304688 7.5328125 -0.9375 8.25 C-1.31777344 8.95640625 -1.69804687 9.6628125 -2.08984375 10.390625 C-2.39019531 10.92171875 -2.69054687 11.4528125 -3 12 C-3.66 11.67 -4.32 11.34 -5 11 C-4.6875 7.625 -4.6875 7.625 -4 4 C-3.01 3.34 -2.02 2.68 -1 2 C-0.67 1.34 -0.34 0.68 0 0 Z " fill="#39109D" transform="translate(287,260)"/>
<path d="M0 0 C0.4125 0.639375 0.825 1.27875 1.25 1.9375 C3.17810487 4.20990931 4.11424181 4.60196439 7 5 C5.68 5.33 4.36 5.66 3 6 C3 6.66 3 7.32 3 8 C1.68 7.67 0.36 7.34 -1 7 C-1.04254356 5.00045254 -1.04080783 2.99958364 -1 1 C-0.67 0.67 -0.34 0.34 0 0 Z " fill="#8B24DD" transform="translate(286,74)"/>
<path d="M0 0 C3.96 0 7.92 0 12 0 C9.31158141 2.25245881 7.35358125 3.88213958 4 5 C2.68 3.35 1.36 1.7 0 0 Z " fill="#8A24DC" transform="translate(238,61)"/>
<path d="M0 0 C0.66 0 1.32 0 2 0 C3.76171875 2.265625 3.76171875 2.265625 5.6875 5.25 C6.33074219 6.22453125 6.97398437 7.1990625 7.63671875 8.203125 C9 11 9 11 8.70703125 13.359375 C8.35705078 14.17148437 8.35705078 14.17148437 8 15 C6.66407203 12.6889639 5.33115569 10.37628245 4 8.0625 C3.6184375 7.40314453 3.236875 6.74378906 2.84375 6.06445312 C0 1.11328125 0 1.11328125 0 0 Z " fill="#4715BF" transform="translate(243,301)"/>
<path d="M0 0 C0.33 0 0.66 0 1 0 C0.50269348 4.97306516 -0.55302334 8.63799813 -3 13 C-3.66 11.68 -4.32 10.36 -5 9 C-4.34 8.01 -3.68 7.02 -3 6 C-2.32650839 4.33607955 -1.6590841 2.66967972 -1 1 C-0.67 0.67 -0.34 0.34 0 0 Z " fill="#611ACB" transform="translate(323,198)"/>
<path d="M0 0 C2.56687367 3.8503105 1.83288724 5.58569763 1 10 C0.01 9.34 -0.98 8.68 -2 8 C-2.3125 5 -2.3125 5 -2 2 C-1.34 1.34 -0.68 0.68 0 0 Z " fill="#8B25D8" transform="translate(74,83)"/>
<path d="M0 0 C2 2 2 2 2.125 4.625 C2.08375 5.40875 2.0425 6.1925 2 7 C0.68 7.33 -0.64 7.66 -2 8 C-2 5.69 -2 3.38 -2 1 C-1.34 0.67 -0.68 0.34 0 0 Z " fill="#4101DE" transform="translate(107,362)"/>
<path d="M0 0 C1.32 0.33 2.64 0.66 4 1 C4.33 2.65 4.66 4.3 5 6 C3.68 6.99 2.36 7.98 1 9 C-0.4783226 6.04335481 -0.06032783 3.25770263 0 0 Z " fill="#4905DE" transform="translate(278,282)"/>
<path d="M0 0 C-1.20381448 2.49361571 -2.45428722 4.68143083 -4 7 C-4.33 5.68 -4.66 4.36 -5 3 C-5.66 3 -6.32 3 -7 3 C-7 2.01 -7 1.02 -7 0 C-2.25 -1.125 -2.25 -1.125 0 0 Z " fill="#6D1AD9" transform="translate(179,179)"/>
<path d="M0 0 C0.66 0 1.32 0 2 0 C2.66 1.98 3.32 3.96 4 6 C3.01 6.66 2.02 7.32 1 8 C0.01 7.67 -0.98 7.34 -2 7 C-1.34 7 -0.68 7 0 7 C0 6.34 0 5.68 0 5 C-0.66 4.67 -1.32 4.34 -2 4 C-1.34 2.68 -0.68 1.36 0 0 Z " fill="#8B26DB" transform="translate(296,81)"/>
<path d="M0 0 C2.46278801 2.46278801 2.99771255 4.70676982 4 8 C0.04 8 -3.92 8 -8 8 C-8 7.67 -8 7.34 -8 7 C-6.865625 6.87625 -5.73125 6.7525 -4.5625 6.625 C-2.7990625 6.315625 -2.7990625 6.315625 -1 6 C0.2981424 3.7763932 0.2981424 3.7763932 0 0 Z " fill="#E9D8F4" transform="translate(280,366)"/>
<path d="M0 0 C3.21043882 1.38188453 5.04936365 2.92421903 7.25 5.625 C8.03117188 6.57246094 8.03117188 6.57246094 8.828125 7.5390625 C9.40820312 8.26222656 9.40820312 8.26222656 10 9 C8.0625 8.625 8.0625 8.625 6 8 C5.33333333 6.66666667 4.66666667 5.33333333 4 4 C1.94999129 3.19471111 1.94999129 3.19471111 0 3 C0 2.01 0 1.02 0 0 Z " fill="#3A08BF" transform="translate(130,337)"/>
<path d="M0 0 C3.9492568 0.55105909 7.34920174 1.38935371 11 3 C11 3.33 11 3.66 11 4 C7.37 3.67 3.74 3.34 0 3 C0 2.01 0 1.02 0 0 Z " fill="#8334CC" transform="translate(267,65)"/>
<path d="M0 0 C-0.66 1.65 -1.32 3.3 -2 5 C-4.91517292 3.92598892 -6.77810176 3.22189824 -9 1 C-5.846632 0.29925156 -3.27275026 0 0 0 Z " fill="#8B38CF" transform="translate(93,60)"/>
<path d="M0 0 C0.99 0 1.98 0 3 0 C3 0.66 3 1.32 3 2 C4.32 1.67 5.64 1.34 7 1 C7.33 1.99 7.66 2.98 8 4 C1.375 4.25 1.375 4.25 -2 2 C-1.34 1.34 -0.68 0.68 0 0 Z " fill="#3F04C9" transform="translate(194,413)"/>
<path d="M0 0 C0.99 0.33 1.98 0.66 3 1 C2.34 1 1.68 1 1 1 C1.66 1.7425 2.32 2.485 3 3.25 C5 6 5 6 5 10 C4.34 10 3.68 10 3 10 C1.68 7.03 0.36 4.06 -1 1 C-0.67 0.67 -0.34 0.34 0 0 Z " fill="#4805DC" transform="translate(231,275)"/>
<path d="M0 0 C1.32 0.33 2.64 0.66 4 1 C2.68 3.31 1.36 5.62 0 8 C-0.99 6.68 -1.98 5.36 -3 4 C-2.34 3.67 -1.68 3.34 -1 3 C-0.67 2.01 -0.34 1.02 0 0 Z " fill="#4B17B9" transform="translate(289,254)"/>
<path d="M0 0 C1.89453125 0.29296875 1.89453125 0.29296875 4 1 C5.81256426 4.5579965 7.21573816 8.07869079 8 12 C4.02502456 8.59287819 2.13206212 4.67239145 0 0 Z " fill="#591DC2" transform="translate(204,236)"/>
<path d="M0 0 C1.65 0.33 3.3 0.66 5 1 C4.67 2.65 4.34 4.3 4 6 C1.525 5.01 1.525 5.01 -1 4 C-0.67 2.68 -0.34 1.36 0 0 Z " fill="#4102D6" transform="translate(120,380)"/>
<path d="M0 0 C0.66 0.33 1.32 0.66 2 1 C2 2.65 2 4.3 2 6 C2.66 6 3.32 6 4 6 C4 6.66 4 7.32 4 8 C3.01 8.33 2.02 8.66 1 9 C-1 6 -1 6 -0.625 2.8125 C-0.41875 1.884375 -0.2125 0.95625 0 0 Z " fill="#8925DE" transform="translate(318,105)"/>
<path d="M0 0 C1.258125 -0.04125 2.51625 -0.0825 3.8125 -0.125 C4.52019531 -0.14820312 5.22789063 -0.17140625 5.95703125 -0.1953125 C8 0 8 0 11 2 C8.36 2 5.72 2 3 2 C3 2.66 3 3.32 3 4 C2.01 3.67 1.02 3.34 0 3 C0 2.01 0 1.02 0 0 Z " fill="#832BD8" transform="translate(109,102)"/>
<path d="M0 0 C2.9375 0.8125 2.9375 0.8125 6 2 C6.33 2.99 6.66 3.98 7 5 C9.00016466 6.20882096 9.00016466 6.20882096 11 7 C7.41584854 7 6.58796261 6.21108216 3.8125 4.0625 C3.09707031 3.51722656 2.38164063 2.97195313 1.64453125 2.41015625 C1.10183594 1.94480469 0.55914062 1.47945313 0 1 C0 0.67 0 0.34 0 0 Z " fill="#4919C0" transform="translate(121,385)"/>
<path d="M0 0 C4.455 2.97 4.455 2.97 9 6 C6 7 6 7 3.375 5.8125 C1 4 1 4 0 0 Z " fill="#EBE0F4" transform="translate(121,386)"/>
<path d="M0 0 C2 4 2 4 1.125 7.25 C0.75375 8.1575 0.3825 9.065 0 10 C-0.99 10 -1.98 10 -3 10 C-2.01 6.7 -1.02 3.4 0 0 Z " fill="#702CC9" transform="translate(284,181)"/>
<path d="M0 0 C3.28788824 3.11016455 5.83735988 6.01618925 8 10 C6.68 9.34 5.36 8.68 4 8 C4 7.34 4 6.68 4 6 C3.01 6 2.02 6 1 6 C0.67 4.02 0.34 2.04 0 0 Z " fill="#4817C0" transform="translate(124,327)"/>
<path d="M0 0 C3 1 3 1 4.203125 2.77734375 C4.54859375 3.49019531 4.8940625 4.20304688 5.25 4.9375 C5.78367188 6.00291016 5.78367188 6.00291016 6.328125 7.08984375 C6.54984375 7.72019531 6.7715625 8.35054687 7 9 C6.67 9.66 6.34 10.32 6 11 C4.99735282 9.35577799 3.99794896 7.70957779 3 6.0625 C2.443125 5.14597656 1.88625 4.22945312 1.3125 3.28515625 C0 1 0 1 0 0 Z " fill="#5C22C1" transform="translate(197,224)"/>
<path d="M0 0 C1.9375 0.6875 1.9375 0.6875 4 2 C4.75 4.625 4.75 4.625 5 7 C4.01 7.495 4.01 7.495 3 8 C2.67 7.34 2.34 6.68 2 6 C1.649375 5.34 1.29875 4.68 0.9375 4 C0 2 0 2 0 0 Z " fill="#8C25DC" transform="translate(312,98)"/>
<path d="M0 0 C2.375 0.25 2.375 0.25 5 1 C6.3125 3.0625 6.3125 3.0625 7 5 C6.01 5 5.02 5 4 5 C1.8125 2.5 1.8125 2.5 0 0 Z " fill="#4B18CA" transform="translate(113,378)"/>
<path d="M0 0 C4.51117936 2.25558968 5.20012321 3.45294283 7 8 C6.67 8.66 6.34 9.32 6 10 C4.02 6.7 2.04 3.4 0 0 Z " fill="#4818C2" transform="translate(88,347)"/>
<path d="M0 0 C2.95183101 2.95183101 3.08663988 5.95511947 4 10 C3.34 10 2.68 10 2 10 C2 9.34 2 8.68 2 8 C1.34 8 0.68 8 0 8 C0 5.36 0 2.72 0 0 Z " fill="#4B19C1" transform="translate(112,298)"/>
<path d="M0 0 C0.33 0.66 0.66 1.32 1 2 C1.66 2 2.32 2 3 2 C3 3.98 3 5.96 3 8 C0.52557871 5.84832931 -0.56238367 4.28212246 -1 1 C-0.67 0.67 -0.34 0.34 0 0 Z " fill="#4004D6" transform="translate(113,306)"/>
<path d="M0 0 C2.76223278 2.76223278 2.57856291 5.20706617 3 9 C2.01 9.33 1.02 9.66 0 10 C0 6.7 0 3.4 0 0 Z " fill="#8A26D9" transform="translate(326,119)"/>
<path d="M0 0 C1.64826111 2.96687001 2.44271087 5.65626525 3 9 C1.29115995 7.37660195 -0.37446717 5.70680947 -2 4 C-2 3.34 -2 2.68 -2 2 C-1.34 2 -0.68 2 0 2 C0 1.34 0 0.68 0 0 Z " fill="#8436CA" transform="translate(276,117)"/>
<path d="M0 0 C2.475 0.495 2.475 0.495 5 1 C4.67 2.32 4.34 3.64 4 5 C2.68 4.34 1.36 3.68 0 3 C0 2.01 0 1.02 0 0 Z " fill="#3F03D5" transform="translate(271,346)"/>
<path d="M0 0 C2.61500768 2.36595933 4.38999603 4.86049226 6 8 C5.67 8.66 5.34 9.32 5 10 C1.55783328 7.3401439 1.00495326 4.09711714 0 0 Z " fill="#4B1DC0" transform="translate(298,309)"/>
<path d="M0 0 C2.0625 2.25 2.0625 2.25 4 5 C3.75 7.3125 3.75 7.3125 3 9 C0.90250005 6.64031256 0.03094296 5.45383006 -0.1875 2.25 C-0.125625 1.5075 -0.06375 0.765 0 0 Z " fill="#781EDA" transform="translate(205,155)"/>
</svg>
